<svg enable-background="new 0 0 512 512" viewBox="0 0 512 512" xmlns="http://www.w3.org/2000/svg"><path d="m256.001 512c140.999 0 255.999-114.999 255.999-255.999 0-141.001-115-256.001-255.999-256.001-141 0-256.001 115-256.001 256.001 0 141 115.001 255.999 256.001 255.999z" fill="#ffca4f"/><path d="m146.447 100.32h255.168l57.901 263.754-21.206.114-.508 93.121 21.856.114-.143 15.561h-344.931c-32.646-2.614-29.734-62.494-31.48-78.522l29.062-268.12c.112-11.915 12.126-26.022 34.281-26.022z" fill="#20d0c2"/><path d="m146.447 100.32h24.438l-22.243 372.664-38.143-1.097c-31.896-1.253-36.66-77.503-26.013-105.148l27.681-240.398c.112-11.914 12.127-26.021 34.28-26.021z" fill="#ff5b61"/><path d="m119.026 364.045h333.877c-15.15 31.942-14.757 63.443 0 94.526h-333.877c-35.815.001-35.81-94.526 0-94.526z" fill="#fff"/><path d="m94.749 390.031h349.218c-.204.946-.392 1.893-.568 2.837h-349.321c.209-.957.429-1.906.671-2.837zm347.584 9.944c-.11.946-.204 1.892-.284 2.837h-349.494c.086-.951.194-1.898.314-2.837zm-.634 9.944c-.014.946-.014 1.891 0 2.837h-349.515c-.014-.946-.014-1.891 0-2.837zm.355 9.942c.083.949.176 1.893.284 2.838h-349.464c-.119-.941-.224-1.888-.311-2.838zm1.351 9.944c.174.944.364 1.891.568 2.837h-349.21c-.246-.934-.466-1.88-.674-2.837zm2.343 9.941c.269.946.553 1.893.851 2.837h-348.305c-.428-.916-.838-1.865-1.22-2.837zm3.335 9.944c.366.946.745 1.893 1.136 2.837h-345.195c-.872-.866-1.699-1.816-2.484-2.837z" fill="#ecf0f1"/><path d="m134.059 412.959h52.174v99.041l-26.304-32.31-25.87 32.31z" fill="#ff5b61"/><path d="m153.961 383.864h268.909 15.333 7.269c1.809-6.567 4.271-13.148 7.401-19.753.008-.021.02-.044.032-.065h-23.865-273.895-36.121c-33.139 0-35.615 80.947-7.417 93.027-9.549-27.879-1.921-73.209 22.878-73.209z" fill="#dfe1e3"/><g fill="#ecf0f1"><path d="m250.233 314.794h100.579v-7.213h-100.579z"/><path d="m258.329 328.435h84.389v-5.401h-84.389z"/></g></svg>